/* XPM */
static char *_3a2e889c1954b219f18e646928c98f567un5uc6G5ty7FyV[] = {
/* columns rows colors chars-per-pixel */
"16 16 4 1 ",
"  c #2E192A",
". c #34201C",
"X c #291A20",
"o c #461B24",
/* pixels */
"ooooooooo oooooo",
"o...oo..o .o...o",
"...oo..oo ...ooo",
"  X        XXX  ",
"oooo ooooooooooo",
"..oo .oooo...oo.",
"o..o ....oo...oo",
" XXX            ",
"ooooooooooooo oo",
"o..ooo...ooo. .o",
"o.....oo..... ..",
"    X      XX   ",
"oo ooooooooooooo",
"o. .o....ooo...o",
"o. ...o....ooo..",
"X     XXX      X"
};
